<svg width="196" height="196" viewBox="0 0 196 196" fill="none" xmlns="http://www.w3.org/2000/svg">
<g clip-path="url(#clip0_3_15)">
<g clip-path="url(#clip1_3_15)">
<rect width="196" height="196.383" fill="url(#paint0_linear_3_15)"/>
<path d="M173.414 98.1914C173.414 126.416 139.736 149.297 98.1914 149.297C56.6471 149.297 22.9688 126.416 22.9688 98.1914C22.9688 69.9666 56.6471 47.0859 98.1914 47.0859C139.736 47.0859 173.414 69.9666 173.414 98.1914Z" fill="#7BBFFF"/>
<path d="M72.9483 98.9466C69.7002 97.1488 65.5885 98.3305 63.7908 101.578C61.993 104.826 63.1747 108.938 66.4228 110.736C69.1697 112.256 72.6724 111.646 74.7464 109.29C75.06 108.933 75.3421 108.534 75.5803 108.104C76.2589 106.878 76.5322 105.466 76.3815 104.097L85.4672 101.163C86.6474 103.873 88.6736 106.111 91.285 107.556C94.6332 109.409 98.4974 109.746 102.07 108.551L109.864 125.926C108.8 126.638 107.919 127.59 107.286 128.734C105.126 132.636 106.542 137.563 110.444 139.723C114.346 141.883 119.273 140.467 121.433 136.564C123.593 132.662 122.177 127.735 118.275 125.575C118.127 125.494 117.977 125.418 117.802 125.33C116.084 124.525 114.149 124.362 112.332 124.835L104.526 107.438C106.655 106.222 108.396 104.467 109.6 102.292C110.676 100.347 111.243 98.1962 111.272 96.002L122.526 95.0773C123.028 97.2727 124.294 99.2287 126.12 100.563C126.424 100.793 126.764 101.012 127.136 101.218C131.686 103.736 137.438 102.084 139.957 97.5328C142.476 92.9817 140.823 87.2309 136.272 84.7118C131.721 82.1927 125.97 83.8454 123.451 88.3965C122.762 89.6403 122.371 91.002 122.285 92.3947L111.046 93.3198C110.327 89.3722 107.884 85.9405 104.335 83.9761C102.673 83.056 100.844 82.5059 98.9747 82.3491L98.8033 69.748C100.672 69.3347 102.314 68.149 103.26 66.4396C103.427 66.139 103.57 65.8253 103.692 65.5077C104.851 62.3688 103.564 58.9071 100.628 57.2821C97.3804 55.4843 93.2687 56.666 91.471 59.914C89.6732 63.1619 90.8549 67.2736 94.103 69.0714C94.7278 69.4173 95.4087 69.6479 96.1118 69.7829L96.2832 82.3841C91.9891 82.8796 88.1374 85.4141 86.0197 89.24C84.4406 92.0929 83.9628 95.4324 84.6355 98.5997L75.544 101.53C74.9408 100.449 74.0495 99.5552 72.9472 98.945L72.9483 98.9466ZM72.7281 107.511C71.4804 108.93 69.3784 109.292 67.7279 108.378C65.7767 107.298 65.0687 104.835 66.1487 102.884C67.2286 100.932 69.692 100.224 71.6432 101.304C72.545 101.804 73.2164 102.622 73.5314 103.597C73.8845 104.67 73.7705 105.809 73.2224 106.799C73.0755 107.064 72.9116 107.305 72.7281 107.511ZM116.627 127.759C116.742 127.815 116.857 127.871 116.969 127.933C119.569 129.372 120.514 132.66 119.075 135.259C117.636 137.859 114.349 138.803 111.749 137.365C109.149 135.926 108.205 132.638 109.643 130.039C110.211 129.013 111.077 128.214 112.153 127.731C113.594 127.089 115.234 127.103 116.627 127.759ZM134.967 87.0709C138.215 88.8688 139.396 92.9804 137.599 96.2284C135.801 99.4763 131.689 100.658 128.441 98.8602C128.182 98.7167 127.95 98.5652 127.725 98.4019C126.144 97.25 125.148 95.4743 124.989 93.5224C124.875 92.1968 125.16 90.8758 125.809 89.7028C127.607 86.4548 131.719 85.2731 134.967 87.0709ZM93.8296 61.2208C94.9096 59.2697 97.373 58.5618 99.3241 59.6417C101.087 60.6173 101.856 62.6912 101.162 64.5711C101.094 64.7642 101.004 64.9535 100.903 65.1362C100.202 66.4036 98.8687 67.1981 97.4232 67.222C96.7053 67.225 96.0277 67.0579 95.4088 66.7153C93.4576 65.6353 92.7497 63.1719 93.8296 61.2208ZM97.6709 84.9856C99.5267 84.9579 101.386 85.4248 103.031 86.3352C106.184 88.0808 108.246 91.2704 108.545 94.8777C108.73 97.0056 108.28 99.1128 107.242 100.987C106.103 103.045 104.366 104.639 102.224 105.602C99.0977 107.006 95.5847 106.856 92.5901 105.198C90.185 103.867 88.4003 101.693 87.554 99.0763C86.638 96.2514 86.9433 93.1399 88.3789 90.5463C90.2485 87.1686 93.8056 85.0405 97.6709 84.9856Z" fill="#0F2760"/>
<circle cx="98" cy="98" r="19.5234" fill="#0F2760"/>
</g>
</g>
<defs>
<linearGradient id="paint0_linear_3_15" x1="98" y1="0" x2="98" y2="196.383" gradientUnits="userSpaceOnUse">
<stop stop-color="#0F172A"/>
<stop offset="0.471154" stop-color="#0F2760"/>
<stop offset="1" stop-color="#0B3BAD"/>
</linearGradient>
<clipPath id="clip0_3_15">
<rect width="196" height="196" rx="24.5" fill="white"/>
</clipPath>
<clipPath id="clip1_3_15">
<rect width="196" height="196" rx="24.5" fill="white"/>
</clipPath>
</defs>
</svg>
