<svg width="512" height="512" viewBox="0 0 512 512" fill="none" xmlns="http://www.w3.org/2000/svg">
<rect width="512" height="512" rx="64" fill="white"/>
<g clip-path="url(#clip0_7_3)">
<rect width="512" height="513" fill="url(#paint0_linear_7_3)"/>
<path d="M255.5 33C255.5 33 268.105 147.597 315.865 195.405C363.911 243.498 479 255.5 479 255.5C479 255.5 363.911 267.502 315.865 315.595C268.105 363.403 255.5 478 255.5 478C255.5 478 242.895 363.403 195.135 315.595C147.089 267.502 32 255.5 32 255.5C32 255.5 147.089 243.498 195.135 195.405C242.895 147.597 255.5 33 255.5 33Z" fill="#D9D9D9"/>
<path d="M118 45C118 45 121.61 77.7053 135.286 91.3492C149.044 105.075 182 108.5 182 108.5C182 108.5 149.044 111.925 135.286 125.651C121.61 139.295 118 172 118 172C118 172 114.39 139.295 100.714 125.651C86.9562 111.925 54 108.5 54 108.5C54 108.5 86.9562 105.075 100.714 91.3492C114.39 77.7053 118 45 118 45Z" fill="#D9D9D9"/>
<path d="M396.5 343C396.5 343 398.953 365.147 408.249 374.386C417.6 383.68 440 386 440 386C440 386 417.6 388.32 408.249 397.614C398.953 406.853 396.5 429 396.5 429C396.5 429 394.047 406.853 384.751 397.614C375.4 388.32 353 386 353 386C353 386 375.4 383.68 384.751 374.386C394.047 365.147 396.5 343 396.5 343Z" fill="#D9D9D9"/>
</g>
<defs>
<linearGradient id="paint0_linear_7_3" x1="256" y1="0" x2="256" y2="513" gradientUnits="userSpaceOnUse">
<stop stop-color="#006C36"/>
<stop offset="0.471154" stop-color="#009C4E"/>
<stop offset="1" stop-color="#00D269"/>
</linearGradient>
<clipPath id="clip0_7_3">
<rect width="512" height="512" rx="64" fill="white"/>
</clipPath>
</defs>
</svg>
