<?xml version="1.0" encoding="UTF-8"?>
<svg id="Layer_2" data-name="Layer 2" xmlns="http://www.w3.org/2000/svg" viewBox="0 0 707.56 328.57">
  <defs>
    <style>
      .cls-1 {
        fill: #010101;
      }

      .cls-2 {
        fill: #ef3d39;
      }
    </style>
  </defs>
  <g id="Layer_1-2" data-name="Layer 1">
    <polygon class="cls-1" points="110.61 325.75 707.56 328.57 707.56 154.43 591.04 25.84 591.04 204.28 0 204.28 110.61 325.75"/>
    <path class="cls-2" d="M156.09,87.2v87.13h-42.92v-79.8c0-24.44-11.15-35.68-30.38-35.68-20.9,0-35.96,12.93-35.96,40.75v74.74H0V22.13h42.92v9.54c11.85-13.01,29.63-11.81,50.24-11.81,35.84,0,62.93,20.93,62.93,67.33Z"/>
    <path class="cls-2" d="M321.58,111.89h-114.36c4.21,18.83,20.23,30.35,43.27,30.35,16.02,0,27.54-4.77,37.93-14.61l23.32,25.29c-14.05,16.02-35.12,24.45-62.38,24.45-52.27,0-86.27-32.88-86.27-77.84S197.66,21.69,243.75,21.69s78.68,29.79,78.68,78.4c0,3.37-.56,8.15-.84,11.8ZM206.65,84.57h74.46c-3.09-19.11-17.42-31.47-37.09-31.47s-34.28,12.08-37.37,31.47Z"/>
    <path class="cls-2" d="M329.43,159.26l14.61-31.47c13.49,8.71,34,14.61,52.54,14.61,20.23,0,27.82-5.34,27.82-13.77,0-24.72-91.32.56-91.32-59.85,0-28.66,25.85-48.89,69.97-48.89,20.79,0,43.84,4.78,58.16,13.21l-14.61,31.19c-14.89-8.43-29.79-11.24-43.55-11.24-19.67,0-28.1,6.18-28.1,14.05,0,25.85,91.32.85,91.32,60.41,0,28.1-26.13,48.05-71.37,48.05-25.57,0-51.42-7.02-65.47-16.3Z"/>
    <path class="cls-2" d="M540.57,25.51l-.27-25.51h-43.97l.27,25.51h-23.32v43.91h23.32v59.93c0,24.28,19.68,43.97,43.97,43.97v-103.89h23.32V25.51h-23.32Z"/>
  </g>
</svg>